<svg width="430" height="431" viewBox="0 0 430 431" fill="none" xmlns="http://www.w3.org/2000/svg">
<path d="M339.5 333.401V361.201C339.5 361.401 339.5 361.601 339.5 361.801H215V328.801H339.4C339.5 330.401 339.5 331.901 339.5 333.401Z" fill="#FFC738"/>
<path d="M215 328.9V361.9H90.5C90.5 361.7 90.5 361.5 90.5 361.3V333.5C90.5 332 90.5 330.4 90.6 328.9H215Z" fill="#FFC738"/>
<path d="M339.5 361.801C339.2 369.101 333.6 375.201 326.2 376.101L297.2 379.501C289.3 380.401 281.5 382.401 274.1 385.501C255.2 393.401 235.1 397.401 215 397.401V361.801H339.5Z" fill="#646E78"/>
<path d="M339.4 328.9H215V284L235 308.9L241.7 317.2L248.8 308.9L291.9 258.4C318.7 271 337.7 297.6 339.4 328.9Z" fill="#646E78"/>
<g style="mix-blend-mode:multiply" opacity="0.5">
<path d="M224.8 361.801H214.7V328.801H219.3C220.8 339.801 222.6 351.301 224.8 361.801Z" fill="#FFC738"/>
</g>
<path opacity="0.5" d="M237.3 395.701C229.8 396.801 222.3 397.401 214.7 397.401V361.801H224.8C228.1 377.301 232.2 390.401 237.3 395.701Z" fill="#646E78"/>
<path d="M291.9 258.3L248.8 308.9L241.7 317.2L235 308.9L215 284C233.5 284 248.7 268.9 248.9 250.4H256.5C269.2 250.4 281.2 253.3 291.9 258.3Z" fill="#646E78"/>
<path d="M215 284L195 308.9L188.3 317.2L181.7 308.9L140.8 257.2C150.8 252.9 161.9 250.5 173.5 250.5H181.1C181.3 268.9 196.5 284 215 284Z" fill="#646E78"/>
<path d="M215 284V328.9H90.6C92.3 296.6 112.5 269.3 140.8 257.2L181.8 308.9L188.4 317.2L195.1 308.9L215 284Z" fill="#646E78"/>
<path d="M215 361.8V397.4H214.7C194.6 397.4 174.5 393.5 155.6 385.6L155.4 385.5C147.7 382.3 139.6 380.2 131.3 379.2L103.8 376C96.4 375.2 90.8 369.1 90.5 361.7H215V361.8Z" fill="#646E78"/>
<path d="M248.9 231.2V250.5C248.7 269 233.6 284.1 215 284.1C196.4 284.1 181.3 268.9 181.1 250.4V231.2C190.7 237.9 202.4 241.7 215 241.7C227.6 241.7 239.3 237.8 248.9 231.2Z" fill="#F9C9C0"/>
<path d="M275.8 149.7L274.6 184.2C273.9 203.7 263.9 220.8 248.9 231.2C239.3 237.9 227.6 241.8 215 241.8C202.4 241.8 190.8 237.9 181.1 231.3C178.4 229.4 175.9 227.4 173.6 225.1C162.9 214.7 156 200.3 155.4 184.3L154.2 149.8H275.8V149.7Z" fill="#F9C9C0"/>
<path d="M312.4 121H117.6V149.7H312.4V121Z" fill="#FFC738"/>
<path d="M285.3 112.701V120.901H226L233.3 51.1006C262.8 56.1006 285.3 81.8006 285.3 112.701Z" fill="#FFC738"/>
<path d="M204 121H144.7V112.8C144.7 81.9002 167.2 56.2002 196.7 51.2002L204 121Z" fill="#FFC738"/>
<path d="M235 34.4004L233.3 51.1004L226 121H204L196.7 51.1004L195 34.4004H235Z" fill="#FFC738"/>
<g style="mix-blend-mode:multiply" opacity="0.5">
<path d="M312.4 121H117.6V149.7H312.4V121Z" fill="#FFC738"/>
</g>
<g style="mix-blend-mode:multiply" opacity="0.5">
<path d="M235 34.4004L233.3 51.1004L226 121H204L196.7 51.1004L195 34.4004H235Z" fill="#FFC738"/>
</g>
<g style="mix-blend-mode:multiply" opacity="0.5">
<path d="M248.9 231.2C248.9 231.2 235.4 252.9 201.2 254.1C194.8 254.3 188.3 255.4 181.9 257C181.8 256.6 181.7 256.1 181.6 255.7C181.6 255.5 181.5 255.3 181.5 255.1C181.4 254.8 181.4 254.5 181.4 254.2C181.2 253 181.2 251.7 181.1 250.4V231.2C190.7 237.9 202.4 241.8 215 241.8C227.6 241.7 239.3 237.8 248.9 231.2Z" fill="#F9C9C0"/>
</g>
<g style="mix-blend-mode:multiply" opacity="0.5">
<path d="M291.9 258.3L248.8 308.9L241.7 317.2L235 308.9L215 284C233.5 284 248.7 268.9 248.9 250.4H256.5C269.2 250.4 281.2 253.3 291.9 258.3Z" fill="#646E78"/>
</g>
<g style="mix-blend-mode:multiply" opacity="0.5">
<path d="M111.8 377L103.8 376.1C101.5 375.8 99.4 375.1 97.5 373.9C97.1 373.7 96.8 373.4 96.4 373.2C96 372.9 95.7 372.7 95.4 372.4C92.7 369.9 90.9 366.5 90.5 362.6C90.5 362.4 90.5 362.1 90.5 361.9H111.6C111.6 370 111.8 375.9 111.8 377Z" fill="#646E78"/>
</g>
<g style="mix-blend-mode:multiply" opacity="0.5">
<path d="M112.7 328.9C111.8 340.5 111.6 352.6 111.6 361.9H90.5C90.5 361.8 90.5 361.7 90.5 361.6C90.5 361.5 90.5 361.4 90.5 361.3V333.7C90.5 333.2 90.5 332.6 90.5 332.1C90.5 331.6 90.5 331.1 90.5 330.6C90.5 330.5 90.5 330.4 90.5 330.4C90.5 329.9 90.5 329.5 90.6 329H112.7V328.9Z" fill="#FFC738"/>
</g>
<g style="mix-blend-mode:multiply" opacity="0.5">
<path d="M140.8 257.101L150.6 269.501C135.7 277.701 123.9 287.801 119.2 295.801C115.6 301.901 113.7 315.001 112.7 328.901H90.6C90.6 328.601 90.6 328.201 90.6 328.001C90.6 327.701 90.6 327.501 90.7 327.201V327.101C90.7 326.601 90.8 326.101 90.8 325.601C90.8 325.101 90.9 324.601 90.9 324.101C91 323.201 91.1 322.201 91.3 321.301C95.6 292.401 114.8 268.301 140.8 257.101Z" fill="#646E78"/>
</g>
<g style="mix-blend-mode:multiply" opacity="0.5">
<path d="M215 284L195 308.9L188.3 317.2L181.7 308.9L140.8 257.2C150.8 252.9 161.9 250.5 173.5 250.5H181.1C181.3 268.9 196.5 284 215 284Z" fill="#646E78"/>
</g>
<path d="M90.6 328.9H214.9H339.4" stroke="#121331" stroke-width="7" stroke-miterlimit="10" stroke-linecap="round" stroke-linejoin="round"/>
<path d="M339.5 361.801H215H90.5" stroke="#121331" stroke-width="7" stroke-miterlimit="10" stroke-linecap="round" stroke-linejoin="round"/>
<path d="M215 284V397.4" stroke="#121331" stroke-width="7" stroke-miterlimit="10" stroke-linecap="round" stroke-linejoin="round"/>
<path d="M181.1 250.4H173.5C161.9 250.4 150.8 252.8 140.8 257.1C112.5 269.2 92.4 296.6 90.6 328.9C90.5 330.4 90.5 331.9 90.5 333.5V361.3C90.5 361.5 90.5 361.7 90.5 361.9C90.8 369.2 96.4 375.3 103.8 376.2L131.3 379.4C139.6 380.4 147.7 382.5 155.4 385.7L155.6 385.8C174.5 393.7 194.6 397.6 214.7 397.6C214.8 397.6 214.9 397.6 215 397.6C235.1 397.6 255.2 393.6 274.1 385.7C281.5 382.6 289.2 380.6 297.2 379.7L326.2 376.3C333.6 375.5 339.2 369.4 339.5 362C339.5 361.8 339.5 361.6 339.5 361.4V333.6C339.5 332.1 339.5 330.5 339.4 329C337.7 297.8 318.8 271.1 291.9 258.5C281.2 253.4 269.2 250.6 256.5 250.6H248.9" stroke="#121331" stroke-width="7" stroke-miterlimit="10" stroke-linecap="round" stroke-linejoin="round"/>
<path d="M248.9 231.2V250.1C248.9 268.7 233.6 284 215 284C196.4 284 181.1 268.8 181.1 250.1V231.2" stroke="#121331" stroke-width="7" stroke-miterlimit="10" stroke-linecap="round" stroke-linejoin="round"/>
<path d="M275.8 149.7L274.6 184.2C273.9 203.7 263.9 220.8 248.9 231.2C239.3 237.9 227.6 241.8 215 241.8C202.4 241.8 190.8 237.9 181.1 231.3C178.4 229.4 175.9 227.4 173.6 225.1C162.9 214.7 156 200.3 155.4 184.3L154.2 149.8" stroke="#121331" stroke-width="7" stroke-miterlimit="10" stroke-linecap="round" stroke-linejoin="round"/>
<path d="M312.4 121H117.6V149.7H312.4V121Z" stroke="#121331" stroke-width="7" stroke-miterlimit="10" stroke-linecap="round" stroke-linejoin="round"/>
<path d="M196.7 51.1006C167.2 56.1006 144.7 81.8006 144.7 112.701V120.901H204H226H285.3V112.701C285.3 81.8006 262.8 56.1006 233.3 51.1006" stroke="#121331" stroke-width="7" stroke-miterlimit="10" stroke-linecap="round" stroke-linejoin="round"/>
<path d="M226 121H204L195 34.4004H235L226 121Z" stroke="#121331" stroke-width="7" stroke-miterlimit="10" stroke-linecap="round" stroke-linejoin="round"/>
<path d="M140.8 257.101L181.8 308.901L188.3 317.101L195 308.901L215 284.001" stroke="#121331" stroke-width="7" stroke-miterlimit="10" stroke-linecap="round" stroke-linejoin="round"/>
<path d="M291.9 258.301L248.8 308.901L241.7 317.101L235 308.901L215 284.001" stroke="#121331" stroke-width="7" stroke-miterlimit="10" stroke-linecap="round" stroke-linejoin="round"/>
</svg>
