<svg width="430" height="431" viewBox="0 0 430 431" fill="none" xmlns="http://www.w3.org/2000/svg">
<path d="M339.46 325.41V353.17C339.46 356.85 338.107 360.402 335.658 363.149C333.209 365.897 329.836 367.648 326.18 368.07L297.18 371.43C289.247 372.34 281.481 374.36 274.11 377.43C255.34 385.278 235.202 389.33 214.857 389.35C194.513 389.371 174.366 385.36 155.58 377.55L155.38 377.47C147.687 374.273 139.586 372.166 131.31 371.21L103.78 368.04C100.124 367.618 96.7508 365.867 94.3021 363.119C91.8535 360.372 90.5003 356.82 90.5 353.14V325.41C90.5 303.397 99.2446 282.286 114.81 266.72C130.376 251.155 151.487 242.41 173.5 242.41H174.97V218.28C174.497 217.86 174.037 217.43 173.59 216.99C162.458 206.267 155.943 191.628 155.43 176.18L154 135.66V135.49L151.8 108.55C151.449 104.227 151.742 99.8764 152.67 95.64C152.74 95.31 152.81 94.99 152.89 94.64L153.13 93.64C153.56 91.99 154.07 90.33 154.68 88.64C155.299 86.9618 156.003 85.3163 156.79 83.71L157.28 82.71C157.95 81.41 158.69 80.13 159.48 78.86C160.486 77.2524 161.577 75.7002 162.75 74.21C163.23 73.61 163.75 73.01 164.23 72.42C164.99 71.53 165.79 70.66 166.62 69.81C168.911 67.474 171.408 65.3487 174.08 63.46C175.08 62.73 176.18 62.02 177.29 61.34L178.41 60.67C179.92 59.8 181.5 58.97 183.15 58.2L184.4 57.63C187.001 56.4888 189.673 55.5168 192.4 54.72L193.83 54.32C194.797 54.0733 195.777 53.8333 196.77 53.6L198.29 53.28C199.81 52.98 201.37 52.71 202.98 52.49L204.6 52.29L206.24 52.12C209.013 51.8533 211.893 51.7166 214.88 51.71C216.033 51.71 217.163 51.73 218.27 51.77C220.68 51.85 223.01 52.03 225.27 52.29L226.77 52.47H226.9L228.66 52.73C229.787 52.91 230.897 53.11 231.99 53.33L232.94 53.53L234.65 53.93L236.02 54.27L237.97 54.82C238.77 55.06 239.56 55.31 240.34 55.57C242.027 56.1366 243.663 56.7633 245.25 57.45L246.05 57.8C247.871 58.6127 249.65 59.5172 251.38 60.51L252.38 61.09C255.452 62.9682 258.338 65.1347 261 67.56L261.51 68.03C261.86 68.36 262.22 68.69 262.57 69.03C262.92 69.37 263.14 69.59 263.41 69.88C263.68 70.17 263.97 70.45 264.24 70.73L265.02 71.59C265.15 71.74 265.29 71.88 265.41 72.03C265.53 72.18 265.67 72.32 265.79 72.47C265.91 72.62 266.3 73.06 266.54 73.36C267.714 74.7947 268.812 76.2901 269.83 77.84C270.01 78.11 270.19 78.38 270.35 78.65C270.51 78.92 270.62 79.08 270.75 79.29C270.88 79.5 271.08 79.83 271.24 80.11C271.4 80.39 271.42 80.4 271.5 80.55L271.65 80.83C271.75 80.98 271.83 81.14 271.92 81.29C272.889 83.0422 273.757 84.8485 274.52 86.7C274.79 87.36 275.05 88 275.28 88.7C275.41 89.04 275.52 89.37 275.63 89.7C275.74 90.03 275.86 90.36 275.96 90.7C276.18 91.37 276.38 92.03 276.55 92.7C276.72 93.37 276.83 93.76 276.96 94.29C277.09 94.82 277.18 95.22 277.28 95.68C278.188 99.9057 278.481 104.24 278.15 108.55L275.93 135.7L274.52 176.22C274.253 184.223 272.371 192.089 268.988 199.346C265.604 206.603 260.788 213.101 254.83 218.45V242.45H256.45C278.458 242.447 299.566 251.185 315.132 266.742C330.699 282.3 339.449 303.402 339.46 325.41Z" fill="#F9C9C0"/>
<g style="mix-blend-mode:multiply" opacity="0.5">
<path d="M175.1 377.58C190.803 384.108 207.478 387.991 224.45 389.07C221.19 389.28 217.92 389.38 214.66 389.38C194.368 389.383 174.276 385.372 155.54 377.58L155.34 377.5C147.647 374.303 139.546 372.196 131.27 371.24L103.74 368.07C100.084 367.648 96.7108 365.897 94.2621 363.149C91.8134 360.402 90.4602 356.85 90.46 353.17V325.41C90.46 303.397 99.2046 282.286 114.77 266.72C130.336 251.155 151.447 242.41 173.46 242.41H174.93V218.28C174.457 217.86 173.997 217.43 173.55 216.99C162.418 206.267 155.903 191.628 155.39 176.18L154 135.66V135.49L151.8 108.55C151.449 104.227 151.742 99.8764 152.67 95.64C152.74 95.31 152.81 94.99 152.89 94.64L153.13 93.64C153.56 91.99 154.07 90.33 154.68 88.64C155.299 86.9618 156.003 85.3163 156.79 83.71L157.28 82.71C157.95 81.41 158.69 80.13 159.48 78.86C160.486 77.2524 161.577 75.7002 162.75 74.21C163.23 73.61 163.75 73.01 164.23 72.42C164.99 71.53 165.79 70.66 166.62 69.81C168.911 67.474 171.408 65.3487 174.08 63.46C175.08 62.73 176.18 62.02 177.29 61.34L178.41 60.67C179.92 59.8 181.5 58.97 183.15 58.2L184.4 57.63C187.001 56.4888 189.673 55.5168 192.4 54.72L193.83 54.32C194.797 54.0733 195.777 53.8333 196.77 53.6L198.29 53.28C199.81 52.98 201.37 52.71 202.98 52.49L204.6 52.29L206.24 52.12C209.013 51.8533 211.893 51.7166 214.88 51.71C216.033 51.71 217.163 51.73 218.27 51.77C220.49 51.84 222.63 52 224.72 52.23L224.16 52.29L222.54 52.49C220.93 52.71 219.37 52.98 217.85 53.28L216.33 53.6C215.337 53.8333 214.357 54.0733 213.39 54.32L211.96 54.72C209.233 55.5168 206.561 56.4888 203.96 57.63L202.71 58.2C201.06 58.97 199.48 59.8 197.97 60.67L196.85 61.34C195.74 62.02 194.68 62.73 193.64 63.46C190.968 65.3487 188.471 67.474 186.18 69.81C185.35 70.66 184.55 71.53 183.79 72.42C183.28 73.01 182.79 73.61 182.31 74.21C181.121 75.7252 180.016 77.3042 179 78.94C178.21 80.21 177.47 81.49 176.8 82.79L176.31 83.79C175.523 85.3963 174.819 87.0418 174.2 88.72C173.59 90.38 173.08 92.04 172.65 93.72L172.41 94.72C172.33 95.05 172.26 95.37 172.19 95.72C171.262 99.9564 170.969 104.307 171.32 108.63L173.52 135.57V135.74L175 176.18C175.55 192.18 181.56 212.33 193.2 221.68C198.89 226.189 205.037 230.091 211.54 233.32L194.54 242.41H193C170.987 242.41 149.876 251.155 134.31 266.72C118.745 282.286 110 303.397 110 325.41V353.17C110 356.85 111.353 360.402 113.802 363.149C116.251 365.897 119.624 367.648 123.28 368.07L150.81 371.24C159.092 372.194 167.201 374.301 174.9 377.5L175.1 377.58Z" fill="#F9C9C0"/>
</g>
<path d="M278.16 108.51L275.94 135.66L244.42 95.6604H185.5L154 135.66V135.49L151.8 108.55C151.449 104.228 151.742 99.8768 152.67 95.6404C152.67 95.4404 152.75 95.2304 152.8 95.0304L153 93.8804C153.07 93.6004 153.15 93.3204 153.22 93.0404C153.659 91.3866 154.186 89.7576 154.8 88.1604L155.19 87.1604L155.61 86.1604C155.75 85.8304 155.9 85.5004 156.05 85.1604C156.2 84.8204 156.35 84.5004 156.51 84.1604C156.67 83.8204 156.83 83.5004 157 83.1604C157.33 82.5004 157.67 81.8504 158 81.2104C158.18 80.8804 158.36 80.5604 158.55 80.2104C158.99 79.4704 159.44 78.7404 159.91 78.0104C160.17 77.6104 160.45 77.2104 160.72 76.8104C160.89 76.5604 161.07 76.3104 161.25 76.0704C161.311 75.9675 161.381 75.8704 161.46 75.7804C161.66 75.4904 161.87 75.2104 162.09 74.9204C162.52 74.3604 162.97 73.7904 163.43 73.2404C163.89 72.6904 164.16 72.3704 164.54 71.9404C164.65 71.8104 164.76 71.6804 164.88 71.5604C165.14 71.2704 165.4 70.9804 165.68 70.6904C166.22 70.1104 166.77 69.5404 167.35 68.9904C167.63 68.7104 167.92 68.4304 168.22 68.1604L169.02 67.4204C169.65 66.8504 170.31 66.2904 171.02 65.7504C171.73 65.2104 172.31 64.7504 173.02 64.2204C173.42 63.9204 173.83 63.6204 174.25 63.3304L175.19 62.6904L176.19 62.0504L177.08 61.4904C177.7 61.1004 178.33 60.7304 178.98 60.3604C179.63 59.9904 180.33 59.6204 180.98 59.2604L181.84 58.8304C182.25 58.6204 182.67 58.4204 183.1 58.2204C183.53 58.0204 183.96 57.8204 184.41 57.6304L185.62 57.1104L186.92 56.5904L188.25 56.0904C188.92 55.8504 189.59 55.6104 190.25 55.3804C190.93 55.1604 191.63 54.9404 192.34 54.7404L193.64 54.3804H193.82L195.23 54.0204L196.71 53.6704L198.23 53.3504C199.75 53.0504 201.31 52.7804 202.92 52.5604L204.54 52.3604L206.18 52.1904C207.84 52.0304 209.54 51.9104 211.28 51.8504C212.44 51.8504 213.62 51.7804 214.82 51.7804C218.288 51.7746 221.754 51.9682 225.2 52.3604L226.71 52.5404H226.83L228.77 52.8304L230.01 53.0404L231.56 53.3304L233.08 53.6504L234.58 54.0004C235.58 54.2404 236.58 54.5004 237.48 54.7704C238.38 55.0404 239.37 55.3404 240.29 55.6504C241.21 55.9604 242.1 56.2804 242.98 56.6504L244.28 57.1704L245.56 57.7104L245.99 57.9004C246.46 58.1104 246.92 58.3204 247.37 58.5404C247.82 58.7604 248.28 58.9804 248.72 59.2104C249.16 59.4404 249.57 59.6404 249.99 59.8704C250.41 60.1004 250.88 60.3604 251.32 60.6104L251.56 60.7504L252.69 61.4204L253.81 62.1204C254.38 62.4904 254.95 62.8704 255.5 63.2604C255.9 63.5304 256.29 63.8104 256.67 64.0904C257.52 64.7104 258.33 65.3504 259.13 66.0104L259.82 66.5904C260.75 67.3904 261.65 68.2104 262.51 69.0504C262.8 69.3304 263.08 69.6104 263.35 69.9004C263.91 70.4604 264.44 71.0304 264.97 71.6104L265.74 72.4804L266.49 73.3804C266.98 73.9804 267.49 74.5804 267.91 75.1904C268.36 75.7904 268.79 76.4004 269.23 77.0104C269.59 77.5404 269.94 78.0804 270.29 78.6204C270.64 79.1604 270.82 79.4704 271.08 79.9104L271.59 80.8004L272.13 81.8004L272.64 82.8004C272.97 83.4504 273.28 84.0904 273.59 84.8004C273.89 85.4504 274.17 86.1004 274.45 86.8004C274.72 87.4504 274.97 88.1104 275.22 88.8004C275.47 89.4904 275.69 90.1304 275.9 90.8004C276.11 91.4704 276.3 92.1204 276.49 92.8004C276.59 93.1804 276.69 93.5604 276.78 93.9404C276.87 94.3204 276.93 94.5104 276.99 94.7904C277.05 95.0704 277.14 95.4504 277.2 95.7904C278.129 99.9624 278.452 104.246 278.16 108.51Z" fill="#646E78"/>
<g style="mix-blend-mode:multiply" opacity="0.5">
<path d="M224.72 52.3204H224.2L222.58 52.5204C220.97 52.7404 219.41 53.0104 217.89 53.3104L216.37 53.6304L214.89 53.9804L213.48 54.3404H213.3L212 54.7004C211.29 54.9004 210.59 55.1204 209.91 55.3404C209.22 55.5704 208.55 55.8104 207.91 56.0504L206.58 56.5504L205.28 57.0704L204.07 57.5904C203.62 57.7804 203.19 57.9804 202.76 58.1804C202.33 58.3804 201.91 58.5804 201.5 58.7904L200.64 59.2204C199.95 59.5804 199.27 59.9404 198.64 60.3204C198.01 60.7004 197.36 61.0604 196.74 61.4504L195.85 62.0104L194.85 62.6504L193.91 63.2904C193.49 63.5804 193.08 63.8804 192.68 64.1804C192.01 64.6804 191.36 65.1804 190.68 65.7104C190 66.2404 189.35 66.8104 188.68 67.3804L187.88 68.1204C187.58 68.3904 187.29 68.6704 187.01 68.9504C186.43 69.5004 185.88 70.0704 185.34 70.6504C185.06 70.9404 184.8 71.2304 184.54 71.5204C184.42 71.6404 184.31 71.7704 184.2 71.9004C183.82 72.3304 183.45 72.7604 183.09 73.2004C182.73 73.6404 182.18 74.3204 181.75 74.8804C181.53 75.1704 181.32 75.4504 181.12 75.7404C181.041 75.8304 180.971 75.9274 180.91 76.0304C180.73 76.2704 180.55 76.5204 180.38 76.7704C180.11 77.1704 179.83 77.5704 179.57 77.9704C179.1 78.7004 178.65 79.4304 178.21 80.1704C178.02 80.4904 177.84 80.8104 177.66 81.1704C177.29 81.8104 176.95 82.4604 176.66 83.1204C176.49 83.4504 176.33 83.7804 176.17 84.1204C176.01 84.4604 175.86 84.7804 175.71 85.1204C175.56 85.4604 175.41 85.7804 175.27 86.1204L174.85 87.1204L174.46 88.1204C173.843 89.7174 173.312 91.3464 172.87 93.0004C172.8 93.2804 172.72 93.5604 172.65 93.8404L172.38 95.0004C172.38 95.2004 172.29 95.4104 172.25 95.6104C171.322 99.8468 171.029 104.198 171.38 108.52L171.75 113.07L154 135.66V135.49L151.8 108.55C151.449 104.228 151.742 99.8768 152.67 95.6404C152.67 95.4404 152.75 95.2304 152.8 95.0304L153 93.8804C153.07 93.6004 153.15 93.3204 153.22 93.0404C153.659 91.3866 154.186 89.7575 154.8 88.1604L155.19 87.1604L155.61 86.1604C155.75 85.8304 155.9 85.5004 156.05 85.1604C156.2 84.8204 156.35 84.5004 156.51 84.1604C156.67 83.8204 156.83 83.5004 157 83.1604C157.33 82.5004 157.67 81.8504 158 81.2104C158.18 80.8804 158.36 80.5604 158.55 80.2104C158.99 79.4704 159.44 78.7404 159.91 78.0104C160.17 77.6104 160.45 77.2104 160.72 76.8104C160.89 76.5604 161.07 76.3104 161.25 76.0704C161.311 75.9674 161.381 75.8704 161.46 75.7804C161.66 75.4904 161.87 75.2104 162.09 74.9204C162.52 74.3604 162.97 73.7904 163.43 73.2404C163.89 72.6904 164.16 72.3704 164.54 71.9404C164.65 71.8104 164.76 71.6804 164.88 71.5604C165.14 71.2704 165.4 70.9804 165.68 70.6904C166.22 70.1104 166.77 69.5404 167.35 68.9904C167.63 68.7104 167.92 68.4304 168.22 68.1604L169.02 67.4204C169.65 66.8504 170.31 66.2904 171.02 65.7504C171.73 65.2104 172.31 64.7504 173.02 64.2204C173.42 63.9204 173.83 63.6204 174.25 63.3304L175.19 62.6904L176.19 62.0504L177.08 61.4904C177.7 61.1004 178.33 60.7304 178.98 60.3604C179.63 59.9904 180.33 59.6204 180.98 59.2604L181.84 58.8304C182.25 58.6204 182.67 58.4204 183.1 58.2204C183.53 58.0204 183.96 57.8204 184.41 57.6304L185.62 57.1104L186.92 56.5904L188.25 56.0904C188.92 55.8504 189.59 55.6104 190.25 55.3804C190.93 55.1604 191.63 54.9404 192.34 54.7404L193.64 54.3804H193.82L195.23 54.0204L196.71 53.6704L198.23 53.3504C199.75 53.0504 201.31 52.7804 202.92 52.5604L204.54 52.3604L206.18 52.1904C207.84 52.0304 209.54 51.9104 211.28 51.8504C212.44 51.8504 213.62 51.7804 214.82 51.7804C218.127 51.7754 221.433 51.9556 224.72 52.3204Z" fill="#646E78"/>
</g>
<path d="M277.28 95.6404H152.64C152.64 95.4404 152.72 95.2304 152.77 95.0304L153 93.8804C153.07 93.6004 153.15 93.3204 153.22 93.0404C153.659 91.3866 154.186 89.7576 154.8 88.1604L155.19 87.1604L155.61 86.1604C155.75 85.8304 155.9 85.5004 156.05 85.1604C156.2 84.8204 156.35 84.5004 156.51 84.1604C156.67 83.8204 156.83 83.5004 157 83.1604C157.33 82.5004 157.67 81.8504 158 81.2104C158.18 80.8804 158.36 80.5604 158.55 80.2104C158.99 79.4704 159.44 78.7404 159.91 78.0104C160.17 77.6104 160.45 77.2104 160.72 76.8104C160.89 76.5604 161.07 76.3104 161.25 76.0704C161.311 75.9675 161.381 75.8704 161.46 75.7804C161.66 75.4904 161.87 75.2104 162.09 74.9204C162.52 74.3604 162.97 73.7904 163.43 73.2404C163.89 72.6904 164.16 72.3704 164.54 71.9404C164.65 71.8104 164.76 71.6804 164.88 71.5604C165.14 71.2704 165.4 70.9804 165.68 70.6904C166.22 70.1104 166.77 69.5404 167.35 68.9904C167.63 68.7104 167.92 68.4304 168.22 68.1604L169.02 67.4204C169.65 66.8504 170.31 66.2904 171.02 65.7504C171.73 65.2104 172.31 64.7504 173.02 64.2204C173.42 63.9204 173.83 63.6204 174.25 63.3304C174.87 62.9004 175.51 62.4704 176.16 62.0504L177.05 61.4904C177.67 61.1004 178.3 60.7304 178.95 60.3604C180.28 59.6104 181.67 58.8904 183.11 58.2204C183.54 58.0204 183.97 57.8204 184.42 57.6304L185.63 57.1104L186.93 56.5904L188.26 56.0904C189.6 55.6004 190.97 55.1504 192.39 54.7404L193.69 54.3804H193.87L195.28 54.0204L196.76 53.6704L198.28 53.3504C199.8 53.0504 201.36 52.7804 202.97 52.5604L204.59 52.3604L206.23 52.1904C207.89 52.0304 209.59 51.9104 211.33 51.8504C212.49 51.8504 213.67 51.7804 214.87 51.7804C218.338 51.7746 221.804 51.9682 225.25 52.3604L226.76 52.5404H226.88C227.96 52.6904 229.02 52.8604 230.06 53.0404L231.61 53.3304L233.13 53.6504L234.63 54.0004C235.63 54.2404 236.63 54.5004 237.53 54.7704C239.437 55.3171 241.27 55.9337 243.03 56.6204L244.33 57.1404L245.61 57.6804L246.04 57.8704C247.91 58.7104 249.68 59.6104 251.37 60.5804L251.61 60.7204L252.74 61.3904C256.291 63.5543 259.586 66.114 262.56 69.0204C262.85 69.3004 263.13 69.5804 263.4 69.8704C263.96 70.4304 264.49 71.0004 265.02 71.5804L265.79 72.4504L266.54 73.3504C267.03 73.9504 267.54 74.5504 267.96 75.1604C268.41 75.7704 268.85 76.3804 269.29 77.0004C269.65 77.5304 270 78.0704 270.35 78.6104C270.7 79.1504 270.88 79.4604 271.14 79.9004L271.65 80.7904L272.19 81.7904L272.7 82.7904C273.03 83.4404 273.34 84.0804 273.65 84.7904C273.95 85.4404 274.23 86.0904 274.51 86.7904C274.78 87.4404 275.03 88.1004 275.28 88.7904C275.53 89.4804 275.75 90.1204 275.96 90.7904C276.17 91.4604 276.36 92.1104 276.55 92.7904C276.65 93.1704 276.75 93.5504 276.84 93.9304C276.93 94.3104 276.99 94.5004 277.05 94.7804C277.11 95.0604 277.21 95.3104 277.28 95.6404Z" fill="#EBE6EF"/>
<g style="mix-blend-mode:multiply" opacity="0.5">
<path d="M224.66 52.3103L224.08 52.3703L222.46 52.5703C220.85 52.7903 219.29 53.0603 217.77 53.3603L216.25 53.6803L214.77 54.0303L213.36 54.3903H213.18L211.88 54.7503C210.46 55.1603 209.09 55.6103 207.75 56.1003L206.42 56.6003L205.12 57.1203L203.91 57.6403C203.46 57.8303 203.03 58.0303 202.6 58.2303C201.16 58.9003 199.77 59.6203 198.44 60.3703C197.79 60.7403 197.16 61.1103 196.54 61.5003L195.65 62.0603C195 62.4803 194.36 62.9103 193.74 63.3403C193.32 63.6303 192.91 63.9303 192.51 64.2303C191.84 64.7303 191.19 65.2303 190.51 65.7603C189.83 66.2903 189.18 66.8603 188.51 67.4303L187.71 68.1703C187.41 68.4403 187.12 68.7203 186.84 69.0003C186.26 69.5503 185.71 70.1203 185.17 70.7003C184.89 70.9903 184.63 71.2803 184.37 71.5703C184.25 71.6903 184.14 71.8203 184.03 71.9503C183.65 72.3803 183.28 72.8103 182.92 73.2503C182.56 73.6903 182.01 74.3703 181.58 74.9303C181.36 75.2203 181.15 75.5003 180.95 75.7903C180.871 75.8803 180.801 75.9773 180.74 76.0803C180.56 76.3203 180.38 76.5703 180.21 76.8203C179.94 77.2203 179.66 77.6203 179.4 78.0203C178.93 78.7503 178.48 79.4803 178.04 80.2203C177.85 80.5403 177.67 80.8603 177.49 81.2203C177.12 81.8603 176.78 82.5103 176.49 83.1703C176.32 83.5003 176.16 83.8303 176 84.1703C175.84 84.5103 175.69 84.8303 175.54 85.1703C175.39 85.5103 175.24 85.8303 175.1 86.1703L174.68 87.1703L174.29 88.1703C173.692 89.7519 173.177 91.3641 172.75 93.0003C172.68 93.2803 172.6 93.5603 172.53 93.8403L172.26 95.0003C172.21 95.2003 172.17 95.4103 172.13 95.6103H152.64C152.64 95.4103 152.72 95.2003 152.77 95.0003L153 93.8803C153.07 93.6003 153.15 93.3203 153.22 93.0403C153.659 91.3865 154.186 89.7575 154.8 88.1603L155.19 87.1603L155.61 86.1603C155.75 85.8303 155.9 85.5003 156.05 85.1603C156.2 84.8203 156.35 84.5003 156.51 84.1603C156.67 83.8203 156.83 83.5003 157 83.1603C157.33 82.5003 157.67 81.8503 158 81.2103C158.18 80.8803 158.36 80.5603 158.55 80.2103C158.99 79.4703 159.44 78.7403 159.91 78.0103C160.17 77.6103 160.45 77.2103 160.72 76.8103C160.89 76.5603 161.07 76.3103 161.25 76.0703C161.311 75.9673 161.381 75.8703 161.46 75.7803C161.66 75.4903 161.87 75.2103 162.09 74.9203C162.52 74.3603 162.97 73.7903 163.43 73.2403C163.89 72.6903 164.16 72.3703 164.54 71.9403C164.65 71.8103 164.76 71.6803 164.88 71.5603C165.14 71.2703 165.4 70.9803 165.68 70.6903C166.22 70.1103 166.77 69.5403 167.35 68.9903C167.63 68.7103 167.92 68.4303 168.22 68.1603L169.02 67.4203C169.65 66.8503 170.31 66.2903 171.02 65.7503C171.73 65.2103 172.31 64.7503 173.02 64.2203C173.42 63.9203 173.83 63.6203 174.25 63.3303C174.87 62.9003 175.51 62.4703 176.16 62.0503L177.05 61.4903C177.67 61.1003 178.3 60.7303 178.95 60.3603C180.28 59.6103 181.67 58.8903 183.11 58.2203C183.54 58.0203 183.97 57.8203 184.42 57.6303L185.63 57.1103L186.93 56.5903L188.26 56.0903C189.6 55.6003 190.97 55.1503 192.39 54.7403L193.69 54.3803H193.87L195.28 54.0203L196.76 53.6703L198.28 53.3503C199.8 53.0503 201.36 52.7803 202.97 52.5603L204.59 52.3603L206.23 52.1903C207.89 52.0303 209.59 51.9103 211.33 51.8503C212.49 51.8503 213.67 51.7803 214.87 51.7803C218.141 51.7789 221.409 51.9559 224.66 52.3103Z" fill="#EBE6EF"/>
</g>
<path d="M339.46 325.12V352.88C339.46 356.56 338.106 360.112 335.658 362.859C333.209 365.607 329.836 367.358 326.18 367.78L297.18 371.14C289.247 372.05 281.481 374.07 274.11 377.14C255.34 384.988 235.201 389.04 214.857 389.06C194.512 389.081 174.366 385.07 155.58 377.26L155.38 377.18C147.671 374.007 139.555 371.926 131.27 371L103.74 367.83C100.084 367.408 96.7108 365.657 94.2621 362.909C91.8134 360.162 90.4602 356.61 90.46 352.93V325.12C90.46 303.107 99.2046 281.996 114.77 266.43C130.336 250.865 151.447 242.12 173.46 242.12H174.93V218C185.865 227.921 200.095 233.427 214.86 233.452C229.625 233.476 243.873 228.015 254.84 218.13V242.13H256.46C278.471 242.13 299.581 250.873 315.146 266.437C330.712 282 339.457 303.109 339.46 325.12Z" fill="#EBE6EF"/>
<g style="mix-blend-mode:multiply" opacity="0.5">
<path d="M339.46 325.12C302.08 346.5 258.68 348.86 258.68 348.86L229.46 261.32V231.65C238.901 229.288 247.617 224.642 254.84 218.12V242.12H256.46C278.473 242.12 299.584 250.865 315.15 266.43C330.715 281.996 339.46 303.107 339.46 325.12Z" fill="#EBE6EF"/>
</g>
<g style="mix-blend-mode:multiply" opacity="0.5">
<path d="M200.46 231.65V261.32L171.23 348.86C171.23 348.86 127.83 346.5 90.46 325.12C90.46 303.107 99.2046 281.996 114.77 266.43C130.336 250.865 151.447 242.12 173.46 242.12H174.93V218C182.184 224.586 190.954 229.275 200.46 231.65Z" fill="#EBE6EF"/>
</g>
<path d="M254.88 242.41H256.5C278.513 242.41 299.624 251.155 315.19 266.72C330.755 282.286 339.5 303.397 339.5 325.41V353.17C339.5 356.85 338.147 360.402 335.698 363.149C333.249 365.897 329.876 367.648 326.22 368.07L297.22 371.43C289.287 372.34 281.521 374.36 274.15 377.43C255.38 385.278 235.242 389.33 214.897 389.351C194.553 389.371 174.406 385.36 155.62 377.55L155.42 377.47C147.727 374.273 139.626 372.166 131.35 371.21L103.82 368.04C100.162 367.628 96.7832 365.885 94.327 363.143C91.8709 360.401 90.5087 356.851 90.5 353.17V325.41C90.5 303.397 99.2446 282.286 114.81 266.72C130.376 251.155 151.487 242.41 173.5 242.41H175" stroke="#121331" stroke-width="7" stroke-linecap="round" stroke-linejoin="round"/>
<path d="M174.97 242.41V218.28" stroke="#121331" stroke-width="7" stroke-linecap="round" stroke-linejoin="round"/>
<path d="M200.5 261.62C209.772 265.489 220.199 265.529 229.5 261.73" stroke="#121331" stroke-width="7" stroke-linecap="round" stroke-linejoin="round"/>
<path d="M200.5 261.62V231.95" stroke="#121331" stroke-width="7" stroke-linecap="round" stroke-linejoin="round"/>
<path d="M229.5 261.73V231.95" stroke="#121331" stroke-width="7" stroke-linecap="round" stroke-linejoin="round"/>
<path d="M254.88 242.41V218.41" stroke="#121331" stroke-width="7" stroke-linecap="round" stroke-linejoin="round"/>
<path d="M154 135.5V135.67L155.41 176.19C155.928 191.641 162.45 206.281 173.59 217C174.043 217.44 174.503 217.87 174.97 218.29C183.391 225.92 193.817 230.985 205.021 232.886C216.224 234.788 227.738 233.448 238.205 229.023C248.671 224.599 257.656 217.275 264.099 207.915C270.542 198.554 274.175 187.547 274.57 176.19L276 135.67" stroke="#121331" stroke-width="7" stroke-linecap="round" stroke-linejoin="round"/>
<path d="M244.45 95.6399L275.98 135.64L278.2 108.49C278.598 103.154 278.056 97.789 276.6 92.6399C276.43 91.9799 276.23 91.3199 276.01 90.6399C275.91 90.3132 275.8 89.9799 275.68 89.6399C275.57 89.3099 275.45 88.9799 275.33 88.6399C275.1 87.9799 274.84 87.3299 274.56 86.6399C274.28 85.9499 274.01 85.3199 273.7 84.6399C273.39 83.9599 273.09 83.3299 272.75 82.6399C272.59 82.3199 272.42 81.9899 272.24 81.6399C272.06 81.2899 271.9 80.9999 271.7 80.6399C271.5 80.2799 271.37 80.0399 271.19 79.7499C271.01 79.4599 270.67 78.8899 270.4 78.4599C270.13 78.0299 269.71 77.3799 269.34 76.8399C268.92 76.2199 268.48 75.6099 268.02 75.0099C267.57 74.3999 267.09 73.7899 266.6 73.1899C266.36 72.8899 266.11 72.5899 265.85 72.2999C265.59 72.0099 265.35 71.7099 265.08 71.4199C264.56 70.8399 264.08 70.2599 263.46 69.6999C263.19 69.4099 262.91 69.1299 262.62 68.8499C262.33 68.5699 262.05 68.2899 261.75 68.0199C261.45 67.7499 261.16 67.4599 260.85 67.1999C260.54 66.9399 260.24 66.6499 259.93 66.3999C259.62 66.1499 259.31 65.8599 258.99 65.6099C258.36 65.0899 257.7 64.6099 256.99 64.0799C256.28 63.5499 255.63 63.0799 254.92 62.6199C254.58 62.3799 254.23 62.1499 253.92 61.9299C253.12 61.4099 252.29 60.9299 251.43 60.4199C251.13 60.2399 250.83 60.0699 250.52 59.9099C250.21 59.7499 249.74 59.4799 249.35 59.2799C248.56 58.8599 247.75 58.4699 246.92 58.0799C246.65 57.9499 246.38 57.8199 246.1 57.7099C245.52 57.4399 244.92 57.1899 244.31 56.9399L243.21 56.4999C242.29 56.1399 241.35 55.8065 240.39 55.4999C239.62 55.2299 238.82 54.9799 238.02 54.7499L236.07 54.1999L235.07 53.9499L234 53.8699L232.57 53.5499L232.04 53.4399C231.533 53.3332 231.013 53.2332 230.48 53.1399C229.95 53.0399 229.42 52.9499 228.88 52.8699C228.768 52.8442 228.654 52.8242 228.54 52.8099L226.82 52.5599C226.21 52.4799 225.61 52.3999 224.99 52.3399C224.37 52.2799 223.51 52.1799 222.76 52.1199C222.22 52.1199 221.69 52.0299 221.14 51.9999H220.91C220.48 51.9999 220.03 51.9399 219.59 51.9299C219.15 51.9199 218.75 51.8799 218.32 51.8799C217.89 51.8799 217.26 51.8799 216.72 51.8799H214.93H213.15H211.71C211.27 51.8799 210.84 51.8799 210.41 51.9399C209.98 51.9999 209.41 51.9399 208.94 52.0199H208.85C208.24 52.0199 207.64 52.0999 207.04 52.1599H206.85C206.237 52.2065 205.637 52.2665 205.05 52.3399C203.82 52.4699 202.62 52.6299 201.44 52.8199C200.7 52.9299 199.98 53.0599 199.27 53.1899L197.78 53.4899L196.17 53.8399L195.88 53.9099L194.36 54.2899C193.813 54.4299 193.263 54.5799 192.71 54.7399C190.488 55.3746 188.301 56.1291 186.16 56.9999L184.92 57.5199L183.75 57.9999C182.297 58.6665 180.9 59.3665 179.56 60.0999L178.99 60.4199C178.66 60.5999 178.34 60.7899 177.99 60.9799C177.64 61.1699 177.13 61.4899 176.71 61.7599L175.71 62.3999C175.22 62.7199 174.71 63.0499 174.26 63.3999L173.08 64.2499C172.3 64.8199 171.55 65.4099 170.82 66.0199C170.46 66.3099 170.11 66.6099 169.76 66.9199C169.42 67.2099 169.09 67.5099 168.76 67.8099C168.06 68.4399 167.39 69.0899 166.76 69.7599C166.46 70.0599 166.16 70.3699 165.87 70.6799C165.58 70.9899 165.2 71.3899 164.87 71.7499C163.091 73.7357 161.464 75.8516 160 78.0799C159.53 78.8099 159.08 79.5399 158.64 80.2799C157.16 82.8003 155.893 85.4394 154.85 88.1699L154.43 89.3099L154.04 90.4499C153.8 91.1899 153.58 91.9299 153.37 92.6599C153.367 92.6864 153.367 92.7133 153.37 92.7399L153.07 93.8899L152.81 94.9999C152.81 95.1999 152.72 95.4099 152.68 95.6099C151.752 99.8497 151.459 104.204 151.81 108.53L154.01 135.53V135.67L185.54 95.6699" stroke="#121331" stroke-width="7" stroke-linecap="round" stroke-linejoin="round"/>
<path d="M277.33 95.64H152.67C157.15 74.55 176.59 51.79 214.91 51.79C253.66 51.79 272.9 74.56 277.33 95.64Z" stroke="#121331" stroke-width="7" stroke-linecap="round" stroke-linejoin="round"/>
<path d="M215.68 296.01V296.13" stroke="#121331" stroke-width="11" stroke-linecap="round" stroke-linejoin="round"/>
<path d="M215.68 357V357.13" stroke="#121331" stroke-width="11" stroke-linecap="round" stroke-linejoin="round"/>
<path d="M215.68 326.5V326.63" stroke="#121331" stroke-width="11" stroke-linecap="round" stroke-linejoin="round"/>
<path d="M200.5 261.62L171.28 349.16C171.28 349.16 127.88 346.79 90.5 325.41" stroke="#121331" stroke-width="7" stroke-linecap="round" stroke-linejoin="round"/>
<path d="M229.5 261.62L258.72 349.16C258.72 349.16 302.12 346.79 339.5 325.41" stroke="#121331" stroke-width="7" stroke-linecap="round" stroke-linejoin="round"/>
<path d="M214.92 51.79L215 42.5" stroke="#121331" stroke-width="7" stroke-linecap="round" stroke-linejoin="round"/>
</svg>
