<svg width="430" height="431" viewBox="0 0 430 431" fill="none" xmlns="http://www.w3.org/2000/svg">
<path d="M275.9 140.172L275.5 150.572L275 164.972L274.6 176.472C273.9 195.972 263.9 213.072 248.9 223.472C239.3 230.172 227.6 234.072 215 234.072C202.4 234.072 190.8 230.172 181.1 223.472C178.4 221.572 175.9 219.572 173.6 217.272C162.9 206.872 156 192.472 155.4 176.472L155 164.972L154.5 151.372L154.1 136.772C193.2 135.172 224.4 110.872 238.9 76.6719C271.7 100.072 270 120.472 275.9 140.172Z" fill="#F9C9C0"/>
<path d="M201 136.072H154.5V165.072H201V136.072Z" fill="#4BB3FD"/>
<path d="M275.4 136.072H228.9V165.072H275.4V136.072Z" fill="#4BB3FD"/>
<path d="M339.5 325.771V353.571C339.5 361.171 333.8 367.571 326.2 368.471L297.2 371.871C289.3 372.771 281.5 374.871 274.1 377.871C255.1 385.771 234.9 389.771 214.7 389.771C194.6 389.771 174.5 385.871 155.6 377.971L155.4 377.871C151.3 376.171 147.1 374.771 142.9 373.771C139.1 372.771 135.3 372.071 131.4 371.671L103.9 368.471C96.3 367.571 90.6 361.171 90.6 353.571V325.771C90.6 306.071 97.5 287.971 108.9 273.771C124.1 254.871 147.4 242.771 173.6 242.771H181.2C181.4 261.271 196.5 276.371 215.1 276.371C233.7 276.371 248.8 261.271 249 242.771H256.6C302.4 242.771 339.5 279.871 339.5 325.771Z" fill="#646E78"/>
<path d="M248.9 223.471V242.771C248.7 261.271 233.5 276.371 215 276.371C196.5 276.371 181.3 261.271 181.1 242.771V223.571C190.7 230.271 202.4 234.071 215 234.071C227.6 234.071 239.3 230.171 248.9 223.471Z" fill="#F9C9C0"/>
<g style="mix-blend-mode:multiply" opacity="0.5">
<path d="M181.8 249.271C153.6 256.371 126.9 274.971 119.2 288.071C109.7 304.171 111.8 369.271 111.8 369.271L103.8 368.371C96.2 367.471 90.5 361.071 90.5 353.471V325.771C90.5 291.471 111.3 261.971 141 249.371C151 245.071 162 242.771 173.5 242.771H181.1C181.1 244.071 181.2 245.271 181.4 246.571C181.4 246.871 181.5 247.171 181.5 247.471C181.5 247.671 181.6 247.871 181.6 248.071C181.7 248.471 181.8 248.871 181.8 249.271Z" fill="#646E78"/>
</g>
<g style="mix-blend-mode:multiply" opacity="0.5">
<path d="M248.8 223.471C248.8 223.471 235.3 245.171 201.1 246.371C194.7 246.571 188.2 247.671 181.8 249.271C181.7 248.871 181.6 248.371 181.5 247.971C181.5 247.771 181.4 247.571 181.4 247.371C181.3 247.071 181.3 246.771 181.3 246.471C181.1 245.271 181.1 243.971 181 242.671V223.471C190.6 230.171 202.3 234.071 214.9 234.071C227.5 234.071 239.2 230.171 248.8 223.471Z" fill="#F9C9C0"/>
</g>
<path d="M154.1 136.771C193.2 135.171 224.4 110.871 238.9 76.6712C271.7 100.071 269.9 120.471 275.9 140.171C290.3 120.571 287.5 81.4712 277.4 65.9712C269 53.1712 253.7 48.9712 253.7 48.9712C231.9 43.6712 209.6 51.4712 198.6 56.4712C194 58.5712 188.7 58.0712 184.6 55.0712L168.6 43.8712C162.7 39.4712 154.3 40.7712 150 46.8712C144.6 54.6712 139.3 66.2712 137.2 80.2712C132.3 113.171 154.1 136.671 154.1 136.671V136.771Z" fill="#B26836"/>
<g style="mix-blend-mode:multiply" opacity="0.5">
<path d="M270.9 58.7715C267.2 56.9715 264.5 56.2715 264.5 56.2715C242.7 50.9715 217.2 61.5715 206.2 66.5715C201.6 68.6715 193 70.7715 188.9 67.8715L173 56.3715C167.1 51.9715 158.6 53.3715 154.4 59.3715C149 67.1715 146.9 76.1715 144.8 90.1715C141.8 110.271 148.8 126.871 154.7 136.771C154.5 136.771 154.2 136.771 154 136.771L154.1 136.671C154.1 136.671 132.3 113.171 137.2 80.2715C139.3 66.2715 144.6 54.6715 150 46.8715C154.2 40.7715 162.6 39.3715 168.6 43.8715L184.5 55.1715C188.6 58.0715 193.9 58.5715 198.5 56.5715C209.6 51.5715 231.8 43.7715 253.6 49.0715C253.7 49.0715 262.9 51.5715 270.9 58.7715Z" fill="#B26836"/>
</g>
<path d="M248.9 242.771H256.5C302.3 242.771 339.5 279.971 339.5 325.771V353.571C339.5 361.171 333.8 367.571 326.2 368.471L297.2 371.871C289.3 372.771 281.5 374.871 274.1 377.871C255.1 385.871 234.9 389.771 214.7 389.771C194.6 389.771 174.5 385.871 155.6 377.971L155.4 377.871C147.7 374.671 139.6 372.571 131.3 371.571L103.8 368.371C96.2 367.471 90.5 361.071 90.5 353.471V325.771C90.5 279.971 127.7 242.771 173.5 242.771H181.1" stroke="#121331" stroke-width="7" stroke-miterlimit="10" stroke-linecap="round" stroke-linejoin="round"/>
<path d="M248.9 223.471V242.371C248.9 260.971 233.6 276.271 215 276.271C196.4 276.271 181.1 261.071 181.1 242.371V223.471" stroke="#121331" stroke-width="7" stroke-miterlimit="10" stroke-linecap="round" stroke-linejoin="round"/>
<path d="M154 136.572V136.772L154.5 151.472L155 165.072L155.4 176.572C156 192.672 162.8 206.972 173.6 217.372C175.9 219.672 178.5 221.672 181.1 223.572C190.7 230.272 202.4 234.072 215 234.072C227.6 234.072 239.3 230.172 248.9 223.472C263.9 213.072 273.9 196.072 274.6 176.472L275 164.972L275.5 150.572L275.9 140.172" stroke="#121331" stroke-width="7" stroke-miterlimit="10" stroke-linecap="round" stroke-linejoin="round"/>
<path d="M154.1 136.771C193.2 135.171 224.4 110.871 238.9 76.6712C271.7 100.071 269.9 120.471 275.9 140.171C290.3 120.571 287.5 81.4712 277.4 65.9712C269 53.1712 253.7 48.9712 253.7 48.9712C231.9 43.6712 209.6 51.4712 198.6 56.4712C194 58.5712 188.7 58.0712 184.6 55.0712L168.6 43.8712C162.7 39.4712 154.3 40.7712 150 46.8712C144.6 54.6712 139.3 66.2712 137.2 80.2712C132.3 113.171 154.1 136.671 154.1 136.671" stroke="#121331" stroke-width="7" stroke-miterlimit="10" stroke-linecap="round" stroke-linejoin="round"/>
<path d="M201.1 136.072H154.6V164.972H201.1V136.072Z" stroke="#121331" stroke-width="7" stroke-miterlimit="10" stroke-linecap="round" stroke-linejoin="round"/>
<path d="M275.5 136.072H229V164.972H275.5V136.072Z" stroke="#121331" stroke-width="7" stroke-miterlimit="10" stroke-linecap="round" stroke-linejoin="round"/>
<path d="M229 147.572H201" stroke="#121331" stroke-width="7" stroke-miterlimit="10" stroke-linecap="round" stroke-linejoin="round"/>
<path d="M224.3 311.172L202.3 327.372L224.3 343.572" stroke="#121331" stroke-width="7" stroke-miterlimit="10" stroke-linecap="round" stroke-linejoin="round"/>
<path d="M286.6 311.172L308.6 327.372L286.6 343.572" stroke="#121331" stroke-width="7" stroke-miterlimit="10" stroke-linecap="round" stroke-linejoin="round"/>
<path d="M260.5 311.172L250 343.572" stroke="#121331" stroke-width="7" stroke-miterlimit="10" stroke-linecap="round" stroke-linejoin="round"/>
</svg>
