<svg width="430" height="431" viewBox="0 0 430 431" fill="none" xmlns="http://www.w3.org/2000/svg">
<path d="M248.102 245.607H256.312C280.002 245.607 302.721 255.018 319.471 271.769C336.222 288.519 345.632 311.238 345.632 334.927V364.807C345.622 368.761 344.162 372.574 341.528 375.523C338.894 378.472 335.27 380.352 331.342 380.807L300.082 384.457C291.541 385.445 283.182 387.633 275.252 390.957C255.052 399.4 233.378 403.757 211.484 403.777C189.59 403.798 167.909 399.482 147.692 391.077L147.482 390.997C139.206 387.552 130.488 385.284 121.582 384.257L91.9525 380.847C88.0249 380.392 84.4009 378.512 81.7671 375.563C79.1334 372.614 77.6729 368.801 77.6625 364.847V334.927C77.6625 311.238 87.0729 288.519 103.824 271.769C120.574 255.018 143.293 245.607 166.982 245.607H248.102Z" fill="#F24C00"/>
<g style="mix-blend-mode:multiply" opacity="0.5">
<path d="M175.192 245.607H166.982C143.293 245.607 120.574 255.017 103.824 271.768C87.0729 288.519 77.6625 311.238 77.6625 334.927V364.807C77.6729 368.76 79.1334 372.573 81.7671 375.522C84.4009 378.471 88.0249 380.351 91.9525 380.807L105.662 382.387L105.012 342.547C105.01 336.346 105.592 330.158 106.752 324.067H106.882C111.172 280.687 142.962 267.367 175.972 258.127L178.852 257.367L180.122 257.027L181.662 256.627L183.382 256.187L184.382 255.937C197.192 252.667 209.852 249.647 220.972 245.557L175.192 245.607Z" fill="#F24C00"/>
</g>
<path d="M247.812 224.357V244.757C247.812 254.425 243.972 263.696 237.137 270.531C230.301 277.367 221.03 281.207 211.362 281.207C201.695 281.207 192.424 277.367 185.588 270.531C178.753 263.696 174.912 254.425 174.912 244.757V224.367" fill="#F9C9C0"/>
<g style="mix-blend-mode:multiply" opacity="0.5">
<path d="M174.912 224.367V244.897C174.93 249.315 175.761 253.691 177.362 257.807L178.852 257.417L180.122 257.077L181.662 256.677L183.382 256.237L184.382 255.987C197.732 252.577 210.932 249.457 222.382 245.097H222.462C232.742 241.177 241.602 236.247 247.852 229.197V224.357L174.912 224.367Z" fill="#F9C9C0"/>
</g>
<path d="M248.102 245.607H256.312C280.002 245.607 302.721 255.018 319.471 271.769C336.222 288.519 345.632 311.238 345.632 334.927V364.807C345.622 368.761 344.162 372.574 341.528 375.523C338.894 378.472 335.27 380.352 331.342 380.807L300.082 384.457C291.541 385.445 283.182 387.633 275.252 390.957C255.052 399.4 233.378 403.757 211.484 403.777C189.59 403.798 167.909 399.482 147.692 391.077L147.482 390.997C139.206 387.552 130.488 385.284 121.582 384.257L91.9525 380.847C88.0249 380.392 84.4009 378.512 81.7671 375.563C79.1334 372.614 77.6729 368.801 77.6625 364.847V334.927C77.6625 311.238 87.0729 288.519 103.824 271.769C120.574 255.018 143.293 245.607 166.982 245.607H175.192" stroke="#121331" stroke-width="7" stroke-linecap="round" stroke-linejoin="round"/>
<path d="M145.753 130.807L147.253 173.807C147.804 190.44 154.813 206.205 166.793 217.757C169.317 220.19 172.032 222.417 174.913 224.417C184.385 230.955 195.443 234.824 206.925 235.618C218.407 236.412 229.892 234.102 240.174 228.931C250.457 223.759 259.159 215.917 265.368 206.225C271.576 196.533 275.063 185.35 275.463 173.847L276.823 134.757C278.395 123.849 277.402 112.724 273.923 102.267C272.923 99.1969 261.253 65.4169 237.523 60.8869C210.803 55.7569 182.203 90.3069 157.063 120.657C154.423 123.837 152.323 126.517 150.933 128.317" fill="#F9C9C0"/>
<path d="M247.812 224.357V244.757C247.812 254.425 243.972 263.696 237.137 270.531C230.301 277.367 221.03 281.207 211.362 281.207C201.695 281.207 192.424 277.367 185.588 270.531C178.753 263.696 174.912 254.425 174.912 244.757V224.367" stroke="#121331" stroke-width="7" stroke-linecap="round" stroke-linejoin="round"/>
<path d="M145.753 130.807L147.253 173.807C147.804 190.44 154.813 206.205 166.793 217.757C169.317 220.19 172.032 222.417 174.913 224.417C184.385 230.955 195.443 234.824 206.925 235.618C218.407 236.412 229.892 234.102 240.174 228.931C250.457 223.759 259.159 215.917 265.368 206.225C271.576 196.533 275.063 185.35 275.463 173.847L276.823 134.757C278.395 123.849 277.402 112.724 273.923 102.267C272.923 99.1969 261.253 65.4169 237.523 60.8869C210.803 55.7569 182.203 90.3069 157.063 120.657C154.423 123.837 152.323 126.517 150.933 128.317" stroke="#121331" stroke-width="7" stroke-linecap="round" stroke-linejoin="round"/>
<path d="M145.883 130.947L145.753 130.807C138.624 122.341 133.301 112.506 130.113 101.907C126.953 91.6769 126.126 80.8688 127.693 70.2771C128.751 63.2688 130.617 56.4065 133.253 49.8271C135.418 44.3686 138.182 39.1669 141.493 34.3171C142.562 32.7535 143.938 31.4234 145.537 30.4071C147.136 29.3909 148.925 28.7098 150.795 28.405C152.664 28.1002 154.577 28.1781 156.416 28.634C158.254 29.0898 159.982 29.9142 161.493 31.0571L178.583 43.2471C180.743 44.7896 183.27 45.7404 185.912 46.0053C188.553 46.2702 191.218 45.8399 193.643 44.7571C205.583 39.3871 229.513 30.9571 252.963 36.6471C261.097 39.1831 268.467 43.714 274.403 49.8271C275.88 51.4157 277.219 53.1287 278.403 54.9471C284.853 64.8271 288.533 83.7471 287.203 101.947C286.283 114.267 283.053 126.247 276.793 134.797C275.893 131.797 275.153 128.797 274.463 125.797C272.673 118.027 271.133 110.117 267.683 101.947C264.497 94.4246 260.016 87.5198 254.443 81.5471C249.19 75.9057 243.354 70.8373 237.033 66.4271C234.812 71.6574 232.197 76.7119 229.213 81.5471C224.651 88.973 219.212 95.8224 213.013 101.947C195.516 119.288 172.278 129.625 147.683 131.007L145.743 131.107" fill="#B26836"/>
<g style="mix-blend-mode:multiply" opacity="0.5">
<path d="M154.323 130.367C147.741 121.278 143.312 110.81 141.373 99.7571C139.514 89.2139 140.023 78.3893 142.863 68.0671C144.763 61.2434 147.448 54.6629 150.863 48.4571C153.689 43.297 157.076 38.4644 160.963 34.0471C161.585 33.3534 162.275 32.7236 163.023 32.1671L161.463 31.0571C159.952 29.9142 158.224 29.0898 156.386 28.634C154.547 28.1781 152.634 28.1002 150.765 28.405C148.895 28.7098 147.106 29.3909 145.507 30.4071C143.908 31.4234 142.532 32.7535 141.463 34.3171C138.151 39.1669 135.388 44.3686 133.223 49.8271C130.587 56.4065 128.721 63.2688 127.663 70.2771C126.096 80.8688 126.923 91.6769 130.083 101.907C133.271 112.506 138.594 122.341 145.723 130.807L145.853 130.947L145.743 131.067L147.683 130.967" fill="#B26836"/>
</g>
<path d="M145.883 130.947L145.753 130.807C138.624 122.341 133.301 112.506 130.113 101.907C126.953 91.6769 126.126 80.8688 127.693 70.2771C128.751 63.2688 130.617 56.4065 133.253 49.8271C135.418 44.3686 138.182 39.1669 141.493 34.3171C142.562 32.7535 143.938 31.4234 145.537 30.4071C147.136 29.3909 148.925 28.7098 150.795 28.405C152.664 28.1002 154.577 28.1781 156.416 28.634C158.254 29.0898 159.982 29.9142 161.493 31.0571L178.583 43.2471C180.743 44.7896 183.27 45.7404 185.912 46.0053C188.553 46.2702 191.218 45.8399 193.643 44.7571C205.583 39.3871 229.513 30.9571 252.963 36.6471C261.097 39.1831 268.467 43.714 274.403 49.8271C275.88 51.4157 277.219 53.1287 278.403 54.9471C284.853 64.8271 288.533 83.7471 287.203 101.947C286.283 114.267 283.053 126.247 276.793 134.797C275.893 131.797 275.153 128.797 274.463 125.797C272.673 118.027 271.133 110.117 267.683 101.947C264.497 94.4246 260.016 87.5198 254.443 81.5471C249.19 75.9057 243.354 70.8373 237.033 66.4271C234.812 71.6574 232.197 76.7119 229.213 81.5471C224.651 88.973 219.212 95.8224 213.013 101.947C195.516 119.288 172.278 129.625 147.683 131.007L145.743 131.107" stroke="#121331" stroke-width="7" stroke-linecap="round" stroke-linejoin="round"/>
<path d="M299.473 306.968V190.168C299.331 187.194 299.794 184.222 300.834 181.432C301.875 178.642 303.47 176.093 305.525 173.938C307.579 171.783 310.05 170.068 312.787 168.896C315.524 167.723 318.47 167.119 321.448 167.119C324.425 167.119 327.371 167.723 330.108 168.896C332.845 170.068 335.316 171.783 337.37 173.938C339.425 176.093 341.021 178.642 342.061 181.432C343.101 184.222 343.564 187.194 343.423 190.168V306.968C350.757 311.71 356.36 318.699 359.396 326.889C362.431 335.079 362.735 344.031 360.262 352.408C357.79 360.785 352.673 368.137 345.678 373.367C338.682 378.596 330.182 381.422 321.448 381.422C312.713 381.422 304.213 378.596 297.217 373.367C290.222 368.137 285.105 360.785 282.633 352.408C280.16 344.031 280.464 335.079 283.5 326.889C286.535 318.699 292.138 311.71 299.473 306.968Z" fill="#EBE6EF"/>
<path d="M321.453 221.367V339.997" stroke="#92140C" stroke-width="7" stroke-linecap="round" stroke-linejoin="round"/>
<path d="M321.493 339.986H321.403" stroke="#92140C" stroke-width="15" stroke-linecap="round" stroke-linejoin="round"/>
<g style="mix-blend-mode:multiply" opacity="0.5">
<path d="M290.053 340.958C290.049 334.467 291.608 328.07 294.598 322.309C297.588 316.547 301.922 311.591 307.233 307.858C307.638 307.584 307.971 307.214 308.201 306.782C308.431 306.35 308.552 305.868 308.553 305.378V190.168C308.57 185.134 310.308 180.257 313.478 176.346C316.649 172.436 321.061 169.726 325.983 168.668C323.171 168.068 320.268 168.034 317.443 168.568C312.334 169.585 307.74 172.354 304.454 176.395C301.168 180.437 299.396 185.499 299.443 190.708V306.968C292.111 311.715 286.511 318.706 283.479 326.898C280.447 335.089 280.146 344.042 282.621 352.418C285.096 360.795 290.214 368.146 297.211 373.374C304.208 378.603 312.708 381.428 321.442 381.428C322.956 381.427 324.469 381.34 325.973 381.168C316.091 380.05 306.967 375.332 300.341 367.916C293.716 360.499 290.053 350.903 290.053 340.958Z" fill="#EBE6EF"/>
</g>
<path d="M68.0825 204.436C68.2132 210.963 70.8977 217.178 75.5597 221.748C80.2217 226.317 86.4895 228.877 93.0175 228.877C99.5455 228.877 105.813 226.317 110.475 221.748C115.137 217.178 117.822 210.963 117.953 204.436C117.953 190.666 93.0125 151.576 93.0125 151.576C93.0125 151.576 68.0825 190.666 68.0825 204.436Z" fill="#EBE6EF"/>
<g style="mix-blend-mode:multiply" opacity="0.5">
<path d="M75.5125 204.438C75.5125 194.018 89.7825 169.118 96.7325 157.598C94.4925 153.898 93.0125 151.598 93.0125 151.598C93.0125 151.598 68.0825 190.668 68.0825 204.438C68.0825 207.712 68.7274 210.953 69.9802 213.978C71.2331 217.003 73.0694 219.751 75.3843 222.066C77.6993 224.381 80.4476 226.217 83.4722 227.47C86.4969 228.723 89.7387 229.368 93.0125 229.368C94.2579 229.371 95.5017 229.277 96.7325 229.088C90.8304 228.199 85.4429 225.223 81.5489 220.7C77.655 216.176 75.5131 210.406 75.5125 204.438Z" fill="#EBE6EF"/>
</g>
<path d="M221.133 141.157C221.078 143.383 221.469 145.597 222.283 147.669C223.097 149.741 224.318 151.629 225.872 153.222C227.427 154.815 229.285 156.082 231.336 156.946C233.388 157.811 235.591 158.256 237.818 158.256C240.044 158.256 242.247 157.811 244.299 156.946C246.35 156.082 248.208 154.815 249.763 153.222C251.317 151.629 252.538 149.741 253.352 147.669C254.166 145.597 254.557 143.383 254.503 141.157C254.503 131.937 237.823 105.777 237.823 105.777C237.823 105.777 221.133 131.937 221.133 141.157Z" fill="#EBE6EF"/>
<path d="M68.0825 204.436C68.2132 210.963 70.8977 217.178 75.5597 221.748C80.2217 226.317 86.4895 228.877 93.0175 228.877C99.5455 228.877 105.813 226.317 110.475 221.748C115.137 217.178 117.822 210.963 117.953 204.436C117.953 190.666 93.0125 151.576 93.0125 151.576C93.0125 151.576 68.0825 190.666 68.0825 204.436Z" stroke="#121331" stroke-width="7" stroke-linecap="round" stroke-linejoin="round"/>
<path d="M221.133 141.157C221.078 143.383 221.469 145.597 222.283 147.669C223.097 149.741 224.318 151.629 225.872 153.222C227.427 154.815 229.285 156.082 231.336 156.946C233.388 157.811 235.591 158.256 237.818 158.256C240.044 158.256 242.247 157.811 244.299 156.946C246.35 156.082 248.208 154.815 249.763 153.222C251.317 151.629 252.538 149.741 253.352 147.669C254.166 145.597 254.557 143.383 254.503 141.157C254.503 131.937 237.823 105.777 237.823 105.777C237.823 105.777 221.133 131.937 221.133 141.157Z" stroke="#121331" stroke-width="7" stroke-linecap="round" stroke-linejoin="round"/>
<path d="M299.473 306.968V190.168C299.331 187.194 299.794 184.222 300.834 181.432C301.875 178.642 303.47 176.093 305.525 173.938C307.579 171.783 310.05 170.068 312.787 168.896C315.524 167.723 318.47 167.119 321.448 167.119C324.425 167.119 327.371 167.723 330.108 168.896C332.845 170.068 335.316 171.783 337.37 173.938C339.425 176.093 341.021 178.642 342.061 181.432C343.101 184.222 343.564 187.194 343.423 190.168V306.968C350.757 311.71 356.36 318.699 359.396 326.889C362.431 335.079 362.735 344.031 360.262 352.408C357.79 360.785 352.673 368.137 345.678 373.367C338.682 378.596 330.182 381.422 321.448 381.422C312.713 381.422 304.213 378.596 297.217 373.367C290.222 368.137 285.105 360.785 282.633 352.408C280.16 344.031 280.464 335.079 283.5 326.889C286.535 318.699 292.138 311.71 299.473 306.968Z" stroke="#121331" stroke-width="7" stroke-linecap="round" stroke-linejoin="round"/>
</svg>
