<svg width="430" height="431" viewBox="0 0 430 431" fill="none" xmlns="http://www.w3.org/2000/svg">
<path d="M197.66 161.5H202C210.841 161.5 219.591 163.28 227.729 166.734C235.867 170.188 243.227 175.245 249.369 181.603C255.511 187.962 260.31 195.492 263.48 203.745C266.65 211.998 268.126 220.805 267.82 229.64L265.67 291.27C265.079 308.329 257.887 324.493 245.609 336.352C233.332 348.211 216.93 354.84 199.86 354.84C182.784 354.85 166.372 348.228 154.085 336.37C141.798 324.512 134.596 308.345 134 291.28L131.86 229.65C131.551 220.815 133.025 212.008 136.192 203.755C139.36 195.502 144.157 187.971 150.297 181.611C156.438 175.251 163.796 170.193 171.933 166.738C180.07 163.283 188.82 161.501 197.66 161.5Z" fill="#F9C9C0"/>
<path d="M197.66 161.5H202C210.842 161.5 219.593 163.28 227.732 166.735C235.87 170.189 243.23 175.247 249.373 181.607C255.515 187.967 260.314 195.498 263.483 203.752C266.653 212.006 268.127 220.814 267.82 229.65L265.67 291.27C265.079 308.329 257.887 324.493 245.609 336.352C233.332 348.211 216.93 354.84 199.86 354.84C182.782 354.85 166.369 348.227 154.081 336.367C141.794 324.506 134.594 308.337 134 291.27L131.86 229.65C131.551 220.815 133.025 212.008 136.192 203.755C139.36 195.502 144.157 187.971 150.297 181.611C156.438 175.251 163.796 170.193 171.933 166.738C180.07 163.283 188.82 161.501 197.66 161.5Z" stroke="#121331" stroke-width="7" stroke-linecap="round" stroke-linejoin="round"/>
<path d="M265.68 289.5C265.68 289.5 269.77 323.69 253.77 350.17C235.25 380.79 199.77 402.52 199.77 402.52C199.77 402.52 164.26 380.79 145.77 350.17C129.73 323.68 133.82 289.5 133.82 289.5" fill="#EBE6EF"/>
<path d="M211.82 394.15C204.7 399.5 199.82 402.51 199.82 402.51C199.82 402.51 164.32 380.78 145.82 350.16C129.76 323.68 133.84 289.5 133.84 289.5H157.92C157.92 289.5 153.83 323.69 169.84 350.17C181.46 369.39 199.79 385.11 211.82 394.15Z" fill="#EBE6EF"/>
<path d="M265.68 289.5C265.68 289.5 269.77 323.69 253.77 350.17C235.25 380.79 199.77 402.53 199.77 402.53C199.77 402.53 164.26 380.79 145.77 350.17C129.73 323.67 133.82 289.5 133.82 289.5" stroke="#121331" stroke-width="7" stroke-linecap="round" stroke-linejoin="round"/>
<path d="M218.27 105.711C227.911 110.936 236.489 117.919 243.56 126.301C246.375 129.628 248.933 133.165 251.21 136.881C259.647 150.6 264.103 166.395 264.08 182.501C260.33 186.501 236.14 211.701 197.26 211.121C159.93 210.561 137 186.671 133.12 182.501C132.83 179.501 132.55 175.421 132.55 170.501C132.547 153.841 135.827 137.344 142.2 121.951C148.574 106.559 157.917 92.5727 169.696 80.7914C181.476 69.0102 195.461 59.6647 210.852 53.2887C226.243 46.9126 242.74 43.6309 259.4 43.6309C262.28 43.6309 265.133 43.7275 267.96 43.9209C273.85 44.2509 278.14 46.4509 278.28 48.5009C278.42 50.5509 274.11 53.7009 267.33 54.5009C264.67 56.0409 245.33 67.6509 239.56 86.2409C237.525 92.8497 236.83 99.7985 237.517 106.679C238.204 113.56 240.258 120.235 243.56 126.311" fill="#92140C"/>
<g style="mix-blend-mode:multiply" opacity="0.5">
<path d="M189.74 100.991C174.771 123.756 166.841 150.426 166.94 177.671C166.94 182.851 167.23 187.191 167.51 190.331C175.07 198.787 184.108 205.795 194.18 211.011C158.67 209.251 136.89 186.551 133.11 182.501C132.83 179.501 132.55 175.421 132.55 170.501C132.547 153.841 135.827 137.344 142.2 121.951C148.574 106.559 157.917 92.5727 169.696 80.7914C181.476 69.0102 195.461 59.6647 210.852 53.2887C226.243 46.9126 242.74 43.6309 259.4 43.6309C262.28 43.6309 265.133 43.7275 267.96 43.9209C270.151 44.0217 272.315 44.4498 274.38 45.1909C239.41 50.8709 209.15 71.6309 189.74 100.991Z" fill="#92140C"/>
</g>
<path d="M279.54 197.5V207.5C279.54 211.478 277.96 215.294 275.147 218.107C272.334 220.92 268.518 222.5 264.54 222.5H134.5C130.522 222.5 126.706 220.92 123.893 218.107C121.08 215.294 119.5 211.478 119.5 207.5V197.5C119.5 193.522 121.08 189.707 123.893 186.893C126.706 184.08 130.522 182.5 134.5 182.5H264.5C266.473 182.495 268.428 182.879 270.253 183.63C272.077 184.382 273.735 185.486 275.132 186.879C276.53 188.273 277.638 189.928 278.394 191.751C279.151 193.573 279.54 195.527 279.54 197.5Z" fill="#EBE6EF"/>
<g style="mix-blend-mode:multiply" opacity="0.5">
<path d="M167.07 222.5H134.51C130.536 222.487 126.728 220.902 123.918 218.092C121.108 215.282 119.523 211.474 119.51 207.5V197.5C119.523 193.526 121.108 189.718 123.918 186.908C126.728 184.098 130.536 182.513 134.51 182.5H167.07C163.096 182.513 159.288 184.098 156.478 186.908C153.668 189.718 152.083 193.526 152.07 197.5V207.5C152.083 211.474 153.668 215.282 156.478 218.092C159.288 220.902 163.096 222.487 167.07 222.5Z" fill="#EBE6EF"/>
</g>
<path d="M268.36 51.22L266.51 57.17L271.08 61.4L272.46 67.47L278.54 68.85L282.77 73.43L288.72 71.58L294.67 73.43L298.9 68.85L304.97 67.47L306.36 61.4L310.93 57.17L309.08 51.22L310.93 45.27L306.36 41.04L304.97 34.96L298.9 33.58L294.67 29L288.72 30.86L282.77 29L278.54 33.58L272.46 34.96L271.08 41.04L266.51 45.27L268.36 51.22Z" fill="#EBE6EF"/>
<path d="M268.36 51.22L266.51 57.17L271.08 61.4L272.46 67.47L278.54 68.85L282.77 73.43L288.72 71.58L294.67 73.43L298.9 68.85L304.97 67.47L306.36 61.4L310.93 57.17L309.08 51.22L310.93 45.27L306.36 41.04L304.97 34.96L298.9 33.58L294.67 29L288.72 30.86L282.77 29L278.54 33.58L272.46 34.96L271.08 41.04L266.51 45.27L268.36 51.22Z" fill="#EBE6EF"/>
<path d="M291.68 68.86L295.28 72.76L294.66 73.43L288.72 71.58L282.76 73.43L278.53 68.86L272.46 67.47L271.07 61.4L266.51 57.17L268.36 51.22L266.51 45.27L271.07 41.04L272.46 34.96L278.53 33.58L282.76 29L288.72 30.85L294.66 29L295.28 29.67L291.68 33.58L285.61 34.96L284.23 41.04L279.65 45.27L281.5 51.22L279.65 57.17L284.23 61.4L285.61 67.47L291.68 68.86Z" fill="#EBE6EF"/>
<path d="M275.32 285.66C273.031 293.476 268.469 300.435 262.215 305.651C255.96 310.868 248.296 314.106 240.196 314.955C232.096 315.804 223.926 314.225 216.726 310.419C209.526 306.613 203.62 300.751 199.76 293.58C195.901 300.755 189.995 306.619 182.794 310.428C175.592 314.236 167.421 315.817 159.318 314.968C151.216 314.118 143.55 310.878 137.294 305.659C131.039 300.441 126.477 293.479 124.19 285.66C126.135 286.51 128.141 287.215 130.19 287.77C138.21 289.926 146.697 289.596 154.525 286.823C162.354 284.049 169.155 278.964 174.03 272.24C174.669 271.279 175.374 270.363 176.14 269.5C178.784 266.733 182.331 265.005 186.14 264.63C188.082 264.432 190.044 264.588 191.93 265.09C194.971 265.902 197.705 267.592 199.79 269.95C201.872 267.594 204.603 265.903 207.64 265.09C211.392 264.089 215.38 264.476 218.87 266.18C220.563 267.012 222.097 268.136 223.4 269.5C224.158 270.354 224.856 271.26 225.49 272.21C230.37 278.931 237.174 284.013 245.003 286.786C252.832 289.559 261.318 289.891 269.34 287.74C271.38 287.191 273.379 286.496 275.32 285.66Z" fill="#EBE6EF"/>
<path d="M133.12 182.501C132.74 178.561 132.55 174.561 132.55 170.501C132.547 153.841 135.827 137.344 142.2 121.951C148.574 106.559 157.917 92.5727 169.696 80.7914C181.476 69.0102 195.461 59.6647 210.852 53.2887C226.243 46.9126 242.74 43.6309 259.4 43.6309C262.28 43.6309 265.133 43.7275 267.96 43.9209" stroke="#121331" stroke-width="7" stroke-linecap="round" stroke-linejoin="round"/>
<path d="M218.27 105.711C227.916 110.929 236.494 117.914 243.56 126.301C246.375 129.628 248.933 133.165 251.21 136.881C259.648 150.6 264.104 166.395 264.08 182.501" stroke="#121331" stroke-width="7" stroke-linecap="round" stroke-linejoin="round"/>
<path d="M267.34 54.5C260.904 57.4755 255.147 61.7399 250.425 67.0294C245.704 72.3188 242.117 78.5208 239.888 85.2518C237.659 91.9827 236.835 99.0994 237.467 106.162C238.098 113.224 240.172 120.081 243.56 126.31" stroke="#121331" stroke-width="7" stroke-linecap="round" stroke-linejoin="round"/>
<path d="M279.54 197.5V207.5C279.527 211.474 277.942 215.282 275.132 218.092C272.322 220.902 268.514 222.487 264.54 222.5H134.5C130.526 222.487 126.718 220.902 123.908 218.092C121.098 215.282 119.513 211.474 119.5 207.5V197.5C119.513 193.526 121.098 189.718 123.908 186.908C126.718 184.098 130.526 182.513 134.5 182.5H264.5C266.473 182.495 268.428 182.879 270.253 183.63C272.077 184.382 273.735 185.486 275.132 186.879C276.53 188.273 277.638 189.928 278.394 191.751C279.151 193.573 279.54 195.527 279.54 197.5Z" stroke="#121331" stroke-width="7" stroke-linecap="round" stroke-linejoin="round"/>
<path d="M268.36 51.21L266.51 57.16L271.08 61.39L272.46 67.47L278.54 68.85L282.77 73.42L288.72 71.58L294.67 73.42L298.9 68.85L304.97 67.47L306.36 61.39L310.93 57.16L309.08 51.21L310.93 45.26L306.36 41.03L304.97 34.96L298.9 33.57L294.67 29L288.72 30.85L282.77 29L278.54 33.57L272.46 34.96L271.08 41.03L266.51 45.26L268.36 51.21Z" stroke="#121331" stroke-width="7" stroke-linecap="round" stroke-linejoin="round"/>
<path d="M268.36 51.21L266.51 57.16L271.08 61.39L272.46 67.47L278.54 68.85L282.77 73.42L288.72 71.58L294.67 73.42L298.9 68.85L304.97 67.47L306.36 61.39L310.93 57.16L309.08 51.21L310.93 45.26L306.36 41.03L304.97 34.96L298.9 33.57L294.67 29L288.72 30.85L282.77 29L278.54 33.57L272.46 34.96L271.08 41.03L266.51 45.26L268.36 51.21Z" stroke="#121331" stroke-width="7" stroke-linecap="round" stroke-linejoin="round"/>
<path d="M275.32 285.65C273.035 293.469 268.475 300.432 262.22 305.652C255.966 310.871 248.299 314.112 240.197 314.961C232.095 315.811 223.923 314.23 216.722 310.421C209.522 306.611 203.617 300.745 199.76 293.57C195.901 300.744 189.995 306.609 182.794 310.418C175.592 314.226 167.421 315.806 159.318 314.957C151.216 314.108 143.55 310.868 137.294 305.649C131.039 300.43 126.477 293.469 124.19 285.65C132.785 289.433 142.414 290.165 151.482 287.727C160.55 285.288 168.512 279.824 174.05 272.24C174.683 271.28 175.381 270.364 176.14 269.5C177.448 268.139 178.984 267.019 180.68 266.19C182.378 265.35 184.215 264.825 186.1 264.64C188.042 264.442 190.004 264.598 191.89 265.1C194.935 265.902 197.672 267.594 199.75 269.96C201.828 267.598 204.56 265.907 207.6 265.1C209.493 264.598 211.461 264.442 213.41 264.64C215.295 264.829 217.13 265.354 218.83 266.19C220.521 267.021 222.054 268.141 223.36 269.5C224.118 270.358 224.816 271.267 225.45 272.22C230.326 278.944 237.13 284.029 244.961 286.8C252.791 289.572 261.279 289.899 269.3 287.74C271.357 287.198 273.37 286.499 275.32 285.65Z" stroke="#121331" stroke-width="7" stroke-linecap="round" stroke-linejoin="round"/>
</svg>
